# xmcd
#
# Track frame offsets:
# 150
# 24205
# 39195
# 61436
# 79417
# 95188
# 110453
# 129428
# 150155
# 162784
# 176710
# 197655
# 235457
# 249737
# 265774
# 287961
#
# Disc length: 4179 seconds
#
#
# Revision: 0
# Processed by: cddbd v1.5.1PL0 Copyright (c) Steve Scherf et al.
# Submitted via: FreeRIP 2.93 
#
DISCID=d6105110
DTITLE=Grupo Revelação - Pagode de Mesa
DYEAR=1900
DGENRE=Samba
TTITLE0=Esqueci de te Esquecer
TTITLE1=Compasso do Amor
TTITLE2=Meu Oceano
TTITLE3=Não pedi para me apaixonar
TTITLE4=Pra te conquistar
TTITLE5=Nuvem
TTITLE6=Talvez
TTITLE7=Deixa acontecer
TTITLE8=Nosso samba virou religião
TTITLE9=Poder de sedução
TTITLE10=Vai lá/Na palma da mão/Cabelo Pichaim
TTITLE11=Na palma da mão/O simpatici/Zé do caroço
TTITLE12=Coração radiante
TTITLE13=Supra sumo do amor
TTITLE14=Onde mora o pagode
TTITLE15=Quem não dança segura acriança/Madrugada
EXTD=
EXTT0=
EXTT1=
EXTT2=
EXTT3=
EXTT4=
EXTT5=
EXTT6=
EXTT7=
EXTT8=
EXTT9=
EXTT10=
EXTT11=
EXTT12=
EXTT13=
EXTT14=
EXTT15=
PLAYORDER=
